<svg xmlns="http://www.w3.org/2000/svg" width="1600" height="900" viewBox="0 0 1600 900" fill="none">
  <defs>
    <linearGradient id="bg" x1="0" y1="0" x2="1" y2="1">
      <stop offset="0%" stop-color="#0f172a"/>
      <stop offset="100%" stop-color="#111827"/>
    </linearGradient>
    <linearGradient id="accent" x1="0" y1="0" x2="1" y2="1">
      <stop offset="0%" stop-color="#a78bfa"/>
      <stop offset="100%" stop-color="#22d3ee"/>
    </linearGradient>
    <filter id="glow" x="-30%" y="-30%" width="160%" height="160%">
      <feGaussianBlur stdDeviation="18" result="blur"/>
      <feColorMatrix in="blur" type="matrix" values="1 0 0 0 0  0 1 0 0 0  0 0 1 0 0  0 0 0 0.85 0" result="glow"/>
      <feMerge>
        <feMergeNode in="glow"/>
        <feMergeNode in="SourceGraphic"/>
      </feMerge>
    </filter>
    <filter id="soft" x="-20%" y="-20%" width="140%" height="140%">
      <feGaussianBlur stdDeviation="12"/>
    </filter>
    <radialGradient id="spot1" cx="0" cy="0" r="1" gradientUnits="userSpaceOnUse" gradientTransform="translate(260 170) rotate(32) scale(420 260)">
      <stop offset="0%" stop-color="#a78bfa" stop-opacity="0.35"/>
      <stop offset="100%" stop-color="#a78bfa" stop-opacity="0"/>
    </radialGradient>
    <radialGradient id="spot2" cx="0" cy="0" r="1" gradientUnits="userSpaceOnUse" gradientTransform="translate(1250 640) rotate(-28) scale(500 320)">
      <stop offset="0%" stop-color="#22d3ee" stop-opacity="0.26"/>
      <stop offset="100%" stop-color="#22d3ee" stop-opacity="0"/>
    </radialGradient>
  </defs>
  <rect width="1600" height="900" rx="42" fill="url(#bg)"/>
  <rect width="1600" height="900" rx="42" fill="url(#spot1)"/>
  <rect width="1600" height="900" rx="42" fill="url(#spot2)"/>
  <g opacity="0.16">
    <path d="M0 120H1600" stroke="white" stroke-opacity="0.25"/>
    <path d="M0 300H1600" stroke="white" stroke-opacity="0.12"/>
    <path d="M0 480H1600" stroke="white" stroke-opacity="0.12"/>
    <path d="M0 660H1600" stroke="white" stroke-opacity="0.12"/>
    <path d="M220 0V900" stroke="white" stroke-opacity="0.08"/>
    <path d="M520 0V900" stroke="white" stroke-opacity="0.08"/>
    <path d="M920 0V900" stroke="white" stroke-opacity="0.08"/>
    <path d="M1260 0V900" stroke="white" stroke-opacity="0.08"/>
  </g>
  <g filter="url(#glow)">
    <rect x="84" y="84" width="1432" height="732" rx="34" fill="rgba(255,255,255,0.03)" stroke="rgba(255,255,255,0.10)"/>
  </g>
  <g transform="translate(120 130)">
    <rect x="0" y="0" width="320" height="42" rx="21" fill="rgba(255,255,255,0.08)"/>
    <text x="22" y="27" fill="white" font-size="18" font-family="Inter, Arial, sans-serif" font-weight="600">AI Control Plane</text>
    <text x="0" y="110" fill="white" font-size="58" font-family="Inter, Arial, sans-serif" font-weight="700">AI SaaS Control Plane</text>
    <text x="0" y="160" fill="rgba(226,232,240,0.82)" font-size="24" font-family="Inter, Arial, sans-serif">FastAPI + React | Agent Orchestration | Agent mesh</text>
    <g transform="translate(0 230)">
      <rect width="250" height="58" rx="18" fill="url(#accent)"/>
      <text x="38" y="37" fill="white" font-size="20" font-family="Inter, Arial, sans-serif" font-weight="600">Live Preview</text>
    </g>
    <g transform="translate(280 230)">
      <rect width="230" height="58" rx="18" fill="rgba(255,255,255,0.06)" stroke="rgba(255,255,255,0.10)"/>
      <text x="34" y="37" fill="rgba(226,232,240,0.92)" font-size="20" font-family="Inter, Arial, sans-serif" font-weight="600">Blueprint Ready</text>
    </g>
  </g>
  <g transform="translate(870 150)" filter="url(#soft)">
    <rect x="0" y="0" width="520" height="330" rx="30" fill="rgba(15,23,42,0.82)" stroke="rgba(255,255,255,0.10)"/>
    <rect x="24" y="24" width="180" height="20" rx="10" fill="rgba(255,255,255,0.12)"/>
    <rect x="24" y="66" width="312" height="22" rx="11" fill="rgba(255,255,255,0.16)"/>
    <rect x="24" y="104" width="280" height="16" rx="8" fill="rgba(255,255,255,0.08)"/>
    <rect x="24" y="142" width="140" height="140" rx="22" fill="url(#accent)" fill-opacity="0.18" stroke="rgba(255,255,255,0.10)"/>
    <rect x="186" y="142" width="140" height="140" rx="22" fill="rgba(255,255,255,0.05)" stroke="rgba(255,255,255,0.10)"/>
    <rect x="348" y="142" width="148" height="140" rx="22" fill="rgba(255,255,255,0.05)" stroke="rgba(255,255,255,0.10)"/>
    <rect x="24" y="300" width="472" height="4" rx="2" fill="url(#accent)"/>
  </g>
  <g transform="translate(990 520)">
    <rect x="0" y="0" width="260" height="180" rx="26" fill="rgba(255,255,255,0.05)" stroke="rgba(255,255,255,0.10)"/>
    <circle cx="64" cy="62" r="20" fill="url(#accent)"/>
    <rect x="104" y="44" width="112" height="14" rx="7" fill="rgba(255,255,255,0.18)"/>
    <rect x="24" y="102" width="212" height="14" rx="7" fill="rgba(255,255,255,0.08)"/>
    <rect x="24" y="126" width="172" height="14" rx="7" fill="rgba(255,255,255,0.08)"/>
  </g>
</svg>
